<svg fill="none" height="531" viewBox="0 0 531 531" width="531" xmlns="http://www.w3.org/2000/svg"><path clip-rule="evenodd" d="m419.337 92.1236c5.788-12.1313-.294-24.1468-7.267-32.6356-7.324-8.9148-18.055-17.1256-28.528-23.5804-10.499-6.4711-21.528-11.6595-29.926-14.1725-3.83-1.1462-8.576-2.2069-12.679-1.5154-2.162.3644-5.9 1.5321-8.179 5.3344-2.301 3.8381-1.558 7.7514-.777 9.9811 2.056 5.8752 6.804 10.1822 10.759 13.1525 1.905 1.4299 3.958 2.7867 6.004 4.0545-17.535-2.6863-44.958-6.5461-84.379-3.7754-110.357 7.7641-200.338 104.2972-212.9384 204.9122-12.4646.768-24.6114 4.816-34.2629 13.676-14.71996 13.514-18.39155 33.321-16.832306 51.685 1.567826 18.465 8.496906 37.199 17.276906 50.923 13.5796 21.229 36.3584 37.97 59.1658 45.709 12.0461 24.134 37.5619 47.296 69.3539 64.601 33.68 18.332 75.55 30.74 118.869 30.74s85.188-12.408 118.869-30.74c31.792-17.305 57.307-40.467 69.354-64.601 22.807-7.739 45.587-24.48 59.166-45.709 8.78-13.724 15.709-32.458 17.277-50.923 1.559-18.364-2.112-38.171-16.832-51.686-9.51-8.73-21.444-12.787-33.716-13.639-4.123-47.349-21.273-84.92-47.504-114.074-11.923-13.251-25.638-24.673-40.709-34.461 1.976-.093 3.814-.255 5.523-.474 15.006-1.927 20.87-8.4898 22.912-12.7824z" fill="#fff" fill-rule="evenodd"/><g fill="#000"><path d="m188 150h5v5h-5z"/><path d="m222.997 180h20v5h-20z"/><path d="m138 190h10v10h-10z"/><path d="m192.997 175h10v15h-10z"/><path d="m162.997 190h10v10h-10z"/><path d="m147.997 180h10v10h-10z"/><path d="m127.997 215h10v20h-10z"/><path d="m202.997 145h20v5h-20z"/><path d="m197.997 165h5v5h-5z"/><path d="m207.997 170h5v5h-5z"/><path d="m212.997 175h5v5h-5z"/><path d="m227.997 175h5v5h-5z"/><path d="m207.997 180h5v5h-5z"/><path d="m202.997 185h5v5h-5z"/><path d="m192.997 190h5v5h-5z"/><path d="m187.997 170h5v10h-5z"/><path d="m172.997 160h5v10h-5z"/><path d="m197.997 195h5v5h-5z"/><path d="m217.997 195h5v5h-5z"/><path d="m222.997 190h5v5h-5z"/><path d="m232.997 190h5v5h-5z"/><path d="m257.997 175h5v5h-5z"/><path d="m262.997 170h5v5h-5z"/><path d="m252.997 195h5v5h-5z"/><path d="m172.997 185h5v5h-5z"/><path d="m152.997 175h5v5h-5z"/><path d="m157.997 185h5v5h-5z"/><path d="m167.997 175h10v5h-10z"/><path d="m162.997 180h25v5h-25z"/><path d="m247.997 180h5v5h-5z"/><path d="m152.997 195h5v5h-5z"/><path d="m132.997 205h5v5h-5z"/><path d="m172.997 195h5v5h-5z"/><path d="m187.997 160h5v5h-5z"/><path d="m113 255h10v5h-10z"/><path d="m118 245h20v5h-20z"/><path d="m123 240h15v5h-15z"/><path d="m122.997 235h5v5h-5z"/><path d="m127.997 255h5v5h-5z"/><path d="m123 220h5v5h-5z"/><path d="m128 210h5v5h-5z"/><path d="m112.997 250h5v5h-5z"/><path d="m197.997 150h10v5h-10z"/><path d="m192.997 155h10v5h-10z"/><path d="m162.997 170h10v5h-10z"/><path d="m222.997 170h10v5h-10z"/><path d="m202.997 160h10v5h-10z"/><path d="m227.997 150h10v5h-10z"/><path d="m252.997 165h10v5h-10z"/><path d="m252.997 185h10v5h-10z"/><path d="m247.997 170h10v5h-10z"/><path d="m237.997 160h15v5h-15z"/><path d="m222.997 150v10h-5v-10z"/><path d="m217.997 155v10h-5v-10z"/><path d="m237.997 160v10h-5v-10z"/><path d="m247.997 185v15h-5v-15z"/><path d="m263 195v5h-5v-5z"/><path d="m247.997 165v15h-5v-15z"/><path d="m222.997 180v10h-5v-10z"/><path d="m213 190v10h-5v-10z"/><path d="m188 195v5h-5v-5z"/><path d="m262.997 175h10v10h-10z"/><path d="m297.997 175h30v5h-30z"/><path d="m287.997 185h35v5h-35z"/><path d="m272.997 195h15v5h-15z"/><path d="m338 190h15v10h-15z"/><path d="m367.997 190h10v10h-10z"/><path d="m352.997 180h10v10h-10z"/><path d="m402.997 230h10v15h-10z"/><path d="m353 155h5v20h-5z"/><path d="m377.997 185h5v5h-5z"/><path d="m357.997 175h5v5h-5z"/><path d="m362.997 185h5v5h-5z"/><path d="m373 175h5v5h-5z"/><path d="m368 180h15v5h-15z"/><path d="m358 195h10v5h-10z"/><path d="m332.997 175h10v5h-10z"/><path d="m337.997 170h5v5h-5z"/><path d="m377.997 195h5v5h-5z"/><path d="m287.997 190h10v5h-10z"/><path d="m292.997 180h10v5h-10z"/><path d="m307.997 180h10v5h-10z"/><path d="m322.997 180h15v5h-15z"/><path d="m332.997 185h15v5h-15z"/><path d="m302.997 195h5v5h-5z"/><path d="m277.997 185h5v5h-5z"/><path d="m357.997 165h5v5h-5z"/><path d="m402.997 250h10v5h-10z"/><path d="m393 255h10v5h-10z"/><path d="m407.997 255h5v5h-5z"/><path d="m397.997 225h5v5h-5z"/><path d="m393 245h5v5h-5z"/><path d="m408 245h10v5h-10z"/><path d="m397.997 235h5v10h-5z"/><path d="m392.997 225h5v15h-5z"/><path d="m312.997 195h10v5h-10z"/><path d="m277.997 165h10v5h-10z"/><path d="m297.997 165h10v5h-10z"/><path d="m317.997 165h15v5h-15z"/><path d="m322.997 160h10v5h-10z"/><path d="m297.997 155h10v5h-10z"/><path d="m298 150h5v5h-5z"/><path d="m317.997 145h15v5h-15z"/><path d="m317.997 155v10h-5v-10z"/><path d="m337.997 150v15h-5v-15z"/><path d="m307.997 150h20v5h-20z"/><path d="m368 170h5v5h-5z"/><path d="m398 215h5v5h-5z"/><path d="m398 200v20h-5v-20z"/><path d="m277.997 175v10h-5v-10z"/><path d="m393 195v5h-5v-5z"/><path d="m132.997 265h5v5h-5z"/><path d="m112.997 260h10v5h-10z"/><path d="m133 260h5v5h-5z"/><path d="m133 315h5v15h-5z"/><path d="m128 340h10v20h-10z"/><path d="m127.997 300h10v5h-10z"/><path d="m132.997 295h5v5h-5z"/><path d="m112.997 355h5v5h-5z"/><path d="m102.997 355h5v5h-5z"/><path d="m92.9971 365h5v5h-5z"/><path d="m112.997 350h10v5h-10z"/><path d="m117.997 305h15v5h-15z"/><path d="m128 310h10v5h-10z"/><path d="m107.997 380h15v5h-15z"/><path d="m97.9971 370h40v5h-40z"/><path d="m123 365h15v5h-15z"/><path d="m88 380h15v5h-15z"/><path d="m87.9971 375h10v5h-10z"/><path d="m112.997 365h5v5h-5z"/><path d="m122.997 360h5v5h-5z"/><path d="m127.997 380h5v5h-5z"/><path d="m118 345h10v5h-10z"/><path d="m92.9971 360h20v5h-20z"/><path d="m102.997 375h5v5h-5z"/><path d="m112.997 375h5v5h-5z"/><path d="m112.997 290h15v5h-15z"/><path d="m117.997 285h10v5h-10z"/><path d="m133 270h5v5h-5z"/><path d="m112.997 270h15v5h-15z"/><path d="m132.997 275v15h-5v-15z"/><path d="m113 275h10v5h-10z"/><path d="m88 385h20v5h-20z"/><path d="m92.9971 390h5v5h-5z"/><path d="m132.997 390h5v5h-5z"/><path d="m112.997 385h10v5h-10z"/><path d="m133 385h5v5h-5z"/><path d="m103 425h20v5h-20z"/><path d="m133 440h6v15h-6z"/><path d="m167.997 460h10v10h-10z"/><path d="m158 455h10v5h-10z"/><path d="m237.997 470h10v15h-10z"/><path d="m177.997 455h5v5h-5z"/><path d="m227.997 465h5v5h-5z"/><path d="m127.997 425h10v5h-10z"/><path d="m132.997 420h5v5h-5z"/><path d="m138 455h15v5h-15z"/><path d="m132.997 455h5v5h-5z"/><path d="m152.997 460h5v5h-5z"/><path d="m162.997 460h5v5h-5z"/><path d="m167.997 470h5v5h-5z"/><path d="m158 465h5v5h-5z"/><path d="m127.997 450h5v5h-5z"/><path d="m108 430h5v5h-5z"/><path d="m117.997 430h15v5h-15z"/><path d="m128 435h10v5h-10z"/><path d="m267.997 470h5v5h-5z"/><path d="m267.997 490h5v5h-5z"/><path d="m207.997 485h10v5h-10z"/><path d="m257.997 485h5v5h-5z"/><path d="m227.997 485h5v5h-5z"/><path d="m242.997 485h5v5h-5z"/><path d="m247.997 470h5v5h-5z"/><path d="m222.997 480h5v5h-5z"/><path d="m192.997 475h5v5h-5z"/><path d="m177.997 470h10v5h-10z"/><path d="m178 475h5v5h-5z"/><path d="m232.997 490h25v5h-25z"/><path d="m212.997 465h5v5h-5z"/><path d="m202.997 475h5v5h-5z"/><path d="m207.997 470h5v10h-5z"/><path d="m188 475h5v5h-5z"/><path d="m222.997 460h5v5h-5z"/><path d="m98 415h5v5h-5z"/><path d="m112.997 415h15v5h-15z"/><path d="m117.997 410h10v5h-10z"/><path d="m133 395h5v5h-5z"/><path d="m92.9971 405h10v5h-10z"/><path d="m88 400h10v5h-10z"/><path d="m112.997 395h15v5h-15z"/><path d="m112.997 405v10h-5v-10z"/><path d="m132.997 400v15h-5v-15z"/><path d="m87.9971 395h20v5h-20z"/><path d="m102.997 400h20v5h-20z"/><path d="m262.997 480h10v5h-10z"/><path d="m252.997 465h10v5h-10z"/><path d="m237.997 460h20v5h-20z"/><path d="m227.997 455h15v5h-15z"/><path d="m217.997 470h15v5h-15z"/><path d="m212.997 455h10v5h-10z"/><path d="m192.997 455h15v5h-15z"/><path d="m192.997 465h15v5h-15z"/><path d="m257.997 475v10h-5v-10z"/><path d="m192.997 460v10h-5v-10z"/><path d="m237.997 470v10h-5v-10z"/><path d="m267.997 460v10h-5v-10z"/><path d="m263 455v5h-5v-5z"/><path d="m393 265h5v5h-5z"/><path d="m412.997 265h10v5h-10z"/><path d="m393 260h25v5h-25z"/><path d="m397.997 300h10v15h-10z"/><path d="m402.997 355h10v15h-10z"/><path d="m408 270h10v5h-10z"/><path d="m402.997 290h5v5h-5z"/><path d="m412.997 295h5v5h-5z"/><path d="m417.997 300h5v5h-5z"/><path d="m412.997 305h5v5h-5z"/><path d="m407.997 310h5v5h-5z"/><path d="m397.997 315h5v5h-5z"/><path d="m392.997 295h5v10h-5z"/><path d="m402.997 320h5v5h-5z"/><path d="m397.997 270h5v5h-5z"/><path d="m392.997 285h5v5h-5z"/><path d="m432.997 375h5v5h-5z"/><path d="m438 370h5v5h-5z"/><path d="m417.997 365h15v5h-15z"/><path d="m412.997 360h10v5h-10z"/><path d="m402.997 375h10v5h-10z"/><path d="m393 380h10v5h-10z"/><path d="m432.997 360h5v5h-5z"/><path d="m427.997 355h5v5h-5z"/><path d="m407.997 380h5v5h-5z"/><path d="m417.997 380h5v5h-5z"/><path d="m397.997 350h5v5h-5z"/><path d="m393 370h5v5h-5z"/><path d="m407.997 370h20v5h-20z"/><path d="m433 380h10v5h-10z"/><path d="m407.997 350h5v5h-5z"/><path d="m413 350h5v5h-5z"/><path d="m397.997 360h5v10h-5z"/><path d="m392.997 350h5v15h-5z"/><path d="m402.997 275h10v5h-10z"/><path d="m397.997 280h10v5h-10z"/><path d="m407.997 285h10v5h-10z"/><path d="m392.997 325h10v5h-10z"/><path d="m397.997 335v10h-5v-10z"/><path d="m393 390h5v5h-5z"/><path d="m412.997 390h10v5h-10z"/><path d="m428 390h15v5h-15z"/><path d="m393 385h35v5h-35z"/><path d="m397.997 425h10v15h-10z"/><path d="m363 455h10v5h-10z"/><path d="m333 465h10v20h-10z"/><path d="m407.997 395h20v5h-20z"/><path d="m433 395h10v5h-10z"/><path d="m402.997 415h5v5h-5z"/><path d="m412.997 420h5v5h-5z"/><path d="m417.997 425h5v5h-5z"/><path d="m412.997 430h5v5h-5z"/><path d="m407.997 435h5v5h-5z"/><path d="m397.997 440h5v5h-5z"/><path d="m392.997 420h5v10h-5z"/><path d="m402.997 445h5v5h-5z"/><path d="m383 455h10v5h-10z"/><path d="m352.997 455h5v5h-5z"/><path d="m337.997 455h5v5h-5z"/><path d="m342.997 475h5v5h-5z"/><path d="m357.997 460h5v5h-5z"/><path d="m368 460h15v5h-15z"/><path d="m363 465h5v5h-5z"/><path d="m352.997 470h5v5h-5z"/><path d="m317.997 480h5v5h-5z"/><path d="m307.997 480h5v5h-5z"/><path d="m297.997 480h5v5h-5z"/><path d="m297.997 490h5v5h-5z"/><path d="m317.997 465h5v5h-5z"/><path d="m307.997 460h5v10h-5z"/><path d="m313 455h5v5h-5z"/><path d="m292.997 455h5v10h-5z"/><path d="m283 455h5v5h-5z"/><path d="m273 455h5v5h-5z"/><path d="m317.997 475h10v5h-10z"/><path d="m327.997 455h5v5h-5z"/><path d="m287.997 455h5v5h-5z"/><path d="m297.997 460h5v5h-5z"/><path d="m302.997 455h5v5h-5z"/><path d="m397.997 395h5v5h-5z"/><path d="m392.997 410h5v5h-5z"/><path d="m272.997 465h5v5h-5z"/><path d="m342.997 465h10v5h-10z"/><path d="m307.997 470h25v5h-25z"/><path d="m297.997 485h20v5h-20z"/><path d="m317.997 460h20v5h-20z"/><path d="m302.997 475h5v5h-5z"/><path d="m302.997 465h5v5h-5z"/><path d="m402.997 400h10v5h-10z"/><path d="m397.997 405h10v5h-10z"/><path d="m428 420h5v5h-5z"/><path d="m407.997 410h10v5h-10z"/><path d="m432.997 400h10v5h-10z"/><path d="m392.997 450h10v5h-10z"/><path d="m282.997 470v10h-5v-10z"/><path d="m287.997 465v10h-5v-10z"/><path d="m297.997 470v10h-5v-10z"/><path d="m292.997 480v10h-10v-10z"/><path d="m427.997 400v10h-5v-10z"/><path d="m422.997 405v10h-5v-10z"/></g><path clip-rule="evenodd" d="m124.274 334.689c-28.2524 9.843-43.3544 24.97-47.0945 42.894-3.905 18.714 4.8677 39.226 21.3391 57.923 32.9764 37.431 98.5614 69.71 167.4784 69.71s134.502-32.279 167.478-69.71c16.472-18.697 25.244-39.21 21.339-57.923-3.74-17.924-18.842-33.051-47.094-42.894 29.802-32.34 25.341-80.868 6.31-121.116-9.908-20.954-23.885-39.986-39.484-53.819-15.553-13.793-33.023-22.673-49.882-22.673-25.859 0-40.881 11.053-56.244 22.355l-.586.431c-.612.45-1.223.899-1.837 1.35-.616-.452-1.229-.903-1.842-1.354-.196-.144-.391-.287-.586-.431-15.362-11.301-30.383-22.351-56.239-22.351-16.86 0-34.329 8.88-49.882 22.673-15.599 13.833-29.576 32.865-39.484 53.819-19.0312 40.248-23.4922 88.776 6.31 121.116zm8.196 9.93c3.035-.95 5.344-3.43 6.073-6.526.73-3.095-.229-6.346-2.521-8.551-27.958-26.891-26.098-70.893-7.209-110.84 9.29-19.647 22.334-37.322 36.597-49.97 14.413-12.781 29.151-19.651 41.92-19.651 21.91 0 34.162 9.011 49.715 20.449 1.194.879 2.409 1.772 3.648 2.676 3.16 2.305 7.448 2.305 10.609-.001 1.237-.902 2.449-1.794 3.642-2.671 15.554-11.44 27.807-20.453 49.72-20.453 12.769 0 27.507 6.87 41.92 19.651 14.263 12.648 27.307 30.323 36.597 49.97 18.889 39.947 20.749 83.949-7.209 110.84-2.292 2.205-3.251 5.456-2.521 8.551.729 3.096 3.038 5.576 6.073 6.526 29.194 9.13 40.869 22.598 43.544 35.415 2.783 13.34-3.222 30.088-18.597 47.539-30.563 34.693-92.795 65.643-158.474 65.643s-127.911-30.95-158.474-65.643c-15.3748-17.451-21.3802-34.199-18.5966-47.539 2.6746-12.817 14.3496-26.285 43.5436-35.415z" fill="#fff" fill-rule="evenodd"/><path clip-rule="evenodd" d="m82.0722 410.963c-22.3665-6.935-45.1394-23.284-58.41-44.031-8.2892-12.956-14.87221-30.762-16.3525-48.196-1.47744-17.401 2.10458-35 14.9117-46.758 9.6371-8.847 22.344-12.393 35.5869-12.228 9.7891-99.841 98.8617-197.1181 207.9777-204.7948 34.348-2.4142 59.388.2809 76.757 2.7819 3.152.454 6.013.8948 8.613 1.2957 4.637.7147 8.449 1.3022 11.618 1.6095 2.446.2373 4.298.2819 5.687.1262 1.78-.1995 3.363-.711 1.764-2.2741-1.804-1.7642-5.161-3.7769-9.453-6.2388-4.114-2.3601-8.894-5.0345-12.919-7.9844-3.949-2.8941-7.709-6.4243-9.21-10.7179-.499-1.4231-.734-3.2512.261-4.911.988-1.6484 2.679-2.2752 4.03-2.5028 2.628-.4428 6.208.2237 9.961 1.3469 7.753 2.3201 18.297 7.2446 28.499 13.5322 10.193 6.2822 20.306 14.0853 27.039 22.2812 6.618 8.0551 10.693 17.445 6.484 26.2541-1.041 2.1833-4.974 7.7092-18.298 9.4094-7.139.9108-17.049.7407-30.842-1.632 25.599 12.8897 48.179 29.5757 66.08 50.7787 24.172 28.63 39.672 65.33 42.684 111.636 13.114-.098 25.681 3.464 35.232 12.232 12.807 11.758 16.389 29.357 14.912 46.758-1.481 17.434-8.064 35.24-16.353 48.196-13.271 20.747-36.044 37.096-58.411 44.031-3.838 8.327-9.449 16.601-16.446 24.543-32.977 37.431-98.562 69.71-167.478 69.71s-134.502-32.279-167.4785-69.71c-6.997-7.942-12.6079-16.216-16.4463-24.543zm264.8348-375.4121c-1.426-1.532-.198-3.4505 1.84-2.9703.737.1737 1.546.39 2.428.654 7.108 2.127 17.167 6.7877 27.071 12.8918 9.912 6.1096 19.408 13.5049 25.551 20.9821 6.258 7.6181 8.325 14.3764 5.706 19.8585l-.002.0046-.002.0026c-.063.1367-2.112 4.5664-13.64 6.0373-11.809 1.5068-33.251-.1585-71.57-12.5964l-.242-.0786-.002-.0006c-1.576-.5112-3.267.3514-3.779 1.9268-.512 1.5755.35 3.2675 1.925 3.7797l.255.0828c42.005 13.6653 78.681 34.8878 104.827 65.8558 26.158 30.982 41.954 71.929 41.805 125.373-.072 25.368-7.241 55.247-21.091 84.411-7.569-11.002-20.805-20.295-40.268-27.076 29.821-32.359 25.324-80.906 6.311-121.116-9.908-20.954-23.885-39.986-39.484-53.819-15.549-13.789-33.019-22.673-49.882-22.673-25.967 0-41.17 11.222-56.592 22.604-.691.51-1.382 1.021-2.075 1.53-.693-.509-1.384-1.019-2.074-1.529l-.006-.004c-15.421-11.381-30.623-22.601-56.587-22.601-16.864 0-34.333 8.884-49.882 22.673-15.6 13.833-29.576 32.865-39.484 53.819-19.0136 40.21-23.5106 88.757 6.31 121.116-19.484 6.789-32.7278 16.095-40.2928 27.113-13.8434-28.976-21.134-58.773-21.0653-84.432.2775-102.695 91.0321-208.5317 203.2911-216.4296 33.794-2.3752 58.385.2738 75.48 2.7354 8.458 1.2179 15.387 2.4419 20.508 2.9385 5.105.4952 15.887.2832 14.96-7.5641-.24-2.0266-1.512-3.6493-2.734-4.8454-3.336-3.2617-7.686-5.4492-11.702-7.7489-3.832-2.2509-7.728-4.3923-11.32-7.0242-1.809-1.3261-3.317-2.6197-4.492-3.8808zm-266.5403 332.5271c-15.3126-30.762-23.5253-62.892-23.4508-90.724.0104-3.868.1451-7.739.4004-11.609-11.9906-.074-22.9139 3.195-31.0373 10.653-10.8943 10.002-14.3864 25.393-12.9908 41.83 1.3928 16.403 7.6301 33.282 15.4284 45.471 11.538 18.038 30.8921 32.675 50.4475 39.936-2.9296-8.826-3.7442-17.62-1.9848-26.052.6818-3.267 1.7408-6.441 3.1874-9.505zm372.4633 35.558c19.555-7.262 38.91-21.899 50.448-39.937 7.798-12.189 14.035-29.068 15.428-45.471 1.396-16.437-2.096-31.828-12.991-41.83-8.082-7.42-18.936-10.694-30.857-10.654.157 3.812.231 7.687.22 11.626-.078 27.491-8.136 59.702-23.467 90.673 1.455 3.076 2.519 6.26 3.203 9.54 1.76 8.432.945 17.226-1.984 26.053zm-320.967-69.769c-30.76-29.586-27.775-76.912-8.475-117.73 9.599-20.3 23.11-38.654 38.041-51.894 14.981-13.285 31.084-21.162 45.901-21.162 23.934 0 37.662 10.114 53.133 21.512l.005.004c1.24.914 2.492 1.836 3.761 2.761 1.053.769 2.483.769 3.536 0 1.269-.925 2.52-1.847 3.76-2.76l.001-.001c15.472-11.4 29.201-21.516 53.138-21.516 14.816 0 30.92 7.877 45.901 21.162 14.931 13.24 28.441 31.594 38.04 51.894 19.301 40.818 22.285 88.144-8.474 117.73-.764.735-1.084 1.818-.84 2.85.243 1.032 1.012 1.859 2.024 2.175 30.194 9.444 44.317 24.057 47.626 39.917 3.345 16.033-4.052 34.664-19.968 52.731-31.77 36.062-95.678 67.676-162.976 67.676s-131.206-31.614-162.976-67.676c-15.9164-18.067-23.3138-36.698-19.9682-52.731 3.3093-15.86 17.4322-30.473 47.6262-39.917 1.011-.316 1.781-1.143 2.024-2.175s-.076-2.115-.84-2.85z" fill="#000" fill-rule="evenodd"/></svg>