<svg id="Layer_1" data-name="Layer 1" xmlns="http://www.w3.org/2000/svg" viewBox="0 0 176 88"><title>paperwallet</title><path d="M42,55.48a4,4,0,0,1,4,4v24a4,4,0,0,1-4,4H4a4,4,0,0,1-4-4v-24a4,4,0,0,1,4-4Zm2,28v-24a2,2,0,0,0-2-2H4a2,2,0,0,0-2,2v24a2,2,0,0,0,2,2H42A2,2,0,0,0,44,83.48Zm-20-18h2v2H24Zm11.8-3A3.21,3.21,0,0,1,39,65.67h0v4.8H31v-8Zm2.2,7,0-3.8a2.19,2.19,0,0,0-2.18-2.2H32v6Zm-14,6h2v2H24Zm-3-9.8a3.2,3.2,0,0,1,3.17-3.2H29v8H21Zm7,3.8v-6H24.2A2.2,2.2,0,0,0,22,65.68v3.8Zm-7,7.8v-4.8h8v8H24.2A3.2,3.2,0,0,1,21,77.28Zm1-3.8v3.8a2.21,2.21,0,0,0,2.17,2.2H28v-6Zm15,0v-1h2v2H38v-1Zm1,3.8v-.8h1v.8a3.2,3.2,0,0,1-3.2,3.2H34v-1h1.8A2.19,2.19,0,0,0,38,77.29h0Zm-4-11.8h2v2H34Zm0,10h2v2H34Zm-3,2h1v3H31Zm4.5-5v1H32v2H31v-3ZM23.72,43.56v0A1,1,0,0,1,23,42.33a45.87,45.87,0,0,1,8.78-17.15,1,1,0,0,1,.93-.38,1,1,0,0,1,.66,1.61A43.75,43.75,0,0,0,25,42.81a1,1,0,0,1-1,.75ZM63.5,4.16V4.1A1,1,0,0,1,64.1,6a69.6,69.6,0,0,0-16.9,8,1,1,0,0,1-.54.17,1,1,0,0,1-.55-1.83A71.25,71.25,0,0,1,63.5,4.16Zm38-1.46a1,1,0,0,1,.76,1.18,1,1,0,0,1-1,.76,1,1,0,0,1-.24,0A65.57,65.57,0,0,0,85.33,2.76l-2.84.06a1,1,0,1,1-.08-2L85.33.76A67.48,67.48,0,0,1,101.53,2.7ZM136.3,17.33l.7,8.12a.5.5,0,0,1-.46.54h-.07l-8.14-.66a.49.49,0,0,1-.46-.53.52.52,0,0,1,.14-.32l3-3a66.84,66.84,0,0,0-12.7-9.76,1,1,0,0,1,1-1.72A69,69,0,0,1,132.4,20.07l3-3.06a.51.51,0,0,1,.72,0,.49.49,0,0,1,.14.3Z" style="fill:#6f6f6f"/></svg>