<svg id="Layer_1" data-name="Layer 1" xmlns="http://www.w3.org/2000/svg" viewBox="0 0 176 106"><title>kaliumwallet</title><path d="M174,85.55a2,2,0,0,1,2,2v6a2,2,0,0,1-2,2v6a4,4,0,0,1-4,4H132a4,4,0,0,1-4-4v-26a5,5,0,0,1,5-5h32a3,3,0,0,1,3,3v2h2a4,4,0,0,1,4,4Zm-2,16v-6h-8a2,2,0,0,1-2-2v-6a2,2,0,0,1,2-2h8v-6a2,2,0,0,0-2-2H134.5A3.53,3.53,0,0,1,131,74a3.37,3.37,0,0,1,.18-1.09A2.49,2.49,0,0,0,130,75.05v26.5a2,2,0,0,0,2,2h38A2,2,0,0,0,172,101.55Zm-37.5-29a1.5,1.5,0,0,0,0,3H166v-2a1,1,0,0,0-1-1Zm39.5,21v-6H164v6Zm-23.06,1.1c-5.65.7-8.25-4.2-7.8-4.67a1.69,1.69,0,0,1,1.19-.34c1.9,0,4.56,2.12,5.1,2.1,1,0,2.63-1.67,3.67-3,.43-.56,3.14-1.42,2.84.07-.95,4.8-4.3,5.74-5,5.83ZM143,85.43c5.65-.7,8.25,4.2,7.8,4.67a1.65,1.65,0,0,1-1.19.35c-1.9,0-4.56-2.12-5.1-2.1-1,0-2.63,1.66-3.67,3-.43.57-3.14,1.42-2.84-.06,1-4.82,4.3-5.76,5-5.85Zm.65-51.8h0a39.39,39.39,0,0,1,8,19.89h4.47a.5.5,0,0,1,.5.5.6.6,0,0,1-.12.32l-5.3,6.22a.49.49,0,0,1-.69.07.23.23,0,0,1-.07-.07l-5.3-6.22a.49.49,0,0,1,.06-.7.47.47,0,0,1,.32-.12h4.1a37.23,37.23,0,0,0-7.61-18.66,1,1,0,0,1,.17-1.39h0a1,1,0,0,1,1.4.18ZM125.17,19.1a1,1,0,0,1,.46,1.34h0a1,1,0,0,1-1.34.45,85,85,0,0,0-26.76-7.61,1,1,0,1,1,.24-2A87,87,0,0,1,125.17,19.1Zm-52.4-7.82a1,1,0,1,1,.28,2A67.53,67.53,0,0,0,47,22.33,1,1,0,0,1,45.57,22h0a1,1,0,0,1,.33-1.35A69.24,69.24,0,0,1,72.77,11.28ZM29.36,39a1,1,0,0,1,.47,1.33v0A43.18,43.18,0,0,0,25,60.53a1,1,0,0,1-2,0,45.1,45.1,0,0,1,5-21.1A1,1,0,0,1,29.36,39Zm21.37-5.86h0c.27.06.37.46.35.66s-.26.33-.36.5a3.3,3.3,0,0,1-1.63,1.6c-12.7,4.26-18.85-6.85-16.35-12.37,1.35-3,3.52-2.44,3.72-4.7a1.75,1.75,0,0,0-.18-.81c-.08-.18-.1-.2.47-.43s1,.4,1.4.4c.14,0,.32,0,.4.24.2.72-.24.74-.4,1.12-2.34,5.9.93,12.77,10.28,13A6.81,6.81,0,0,1,50.73,33.14ZM93.6,19h0a6.54,6.54,0,0,1,1.74,1.7c.17.16.1.6,0,.78s-.4.2-.54.3a3.37,3.37,0,0,1-2.18.72c-13.25-1.75-13.9-14.43-9.25-18.3,2.52-2.1,4.24-.6,5.4-2.6A1.6,1.6,0,0,0,89,.79c0-.18,0-.26.6-.18s.72.78,1.1,1c.1.1.25.1.25.4-.13.74-.55.56-.85.84C85.4,7.07,85.3,14.7,93.6,19Zm40.3,21.16h0a3.35,3.35,0,0,1-2-1.19c-7.22-11.25,2-19.9,8-18.9,3.23.57,3.24,2.82,5.48,2.45a1.83,1.83,0,0,0,.73-.38c.16-.12.2-.1.54.35s-.1,1-.05,1.45c0,.14.12.3-.13.44-.64.38-.8-.1-1.2-.1-6.23-.84-12.1,4-10,13.16a6.42,6.42,0,0,1-.2,2.43c0,.24-.4.46-.6.5s-.4-.22-.57-.22Z" style="fill:#fbdd11"/></svg>