<svg id="Layer_1" data-name="Layer 1" xmlns="http://www.w3.org/2000/svg" viewBox="0 0 176 88"><title>kaliumwallet</title><path d="M174,67.56v0a2,2,0,0,1,1.89,2v6a2,2,0,0,1-2,2v6a4,4,0,0,1-4,4h-38a4,4,0,0,1-4-4v-26a5,5,0,0,1,5-5h2a11,11,0,0,1,.89-7c2.26-4.13,5.3-3.1,5.83-6.3a2.27,2.27,0,0,0-.17-1.18c-.08-.26-.15-.3.72-.56s1.38.63,2,.73c.2,0,.43,0,.53.38.2,1-.44,1-.7,1.56a13,13,0,0,0,.25,12.38H145c0-4.3,1.75-8.24,4.5-10.18,3.83-2.72,6.12-.44,8-3.1a2.3,2.3,0,0,0,.37-1.13c0-.28.06-.3.9-.18s.94,1.13,1.44,1.5c.15.12.4.18.3.58-.25,1-.83.74-1.3,1.1a13,13,0,0,0-5.29,11.39H154c1.36-5.56,5.57-9.88,9.8-10.56,4.66-.75,5.7,2.3,8.56.75a2.33,2.33,0,0,0,.82-.86c.16-.23.17-.27.88.23s.33,1.45.63,2c.06.16.27.34,0,.66-.66.8-1.1.28-1.66.4a13.06,13.06,0,0,0-9.51,7.38H165a3,3,0,0,1,3,3v2h2a4,4,0,0,1,4,4v6Zm-2,16v-6h-8a2,2,0,0,1-2-2v-6a2,2,0,0,1,2-2h8v-6a2,2,0,0,0-2-2H134.5a3.49,3.49,0,0,1-3.31-4.63A2.5,2.5,0,0,0,130,57.06v26.5a2,2,0,0,0,2,2h38A2,2,0,0,0,172,83.56Zm2-8v-6H164v6Zm-11.2-21h0a13.72,13.72,0,0,0-.33,3H166v-2a1,1,0,0,0-1-1Zm-28.3,0h0a1.5,1.5,0,0,0,0,3h2.3a16.37,16.37,0,0,1-1.32-3Zm16.44,22.1c-5.65.7-8.25-4.2-7.78-4.67a1.66,1.66,0,0,1,1.18-.34c1.9,0,4.57,2.12,5.1,2.1,1.05,0,2.63-1.67,3.66-3,.44-.57,3.14-1.42,2.84.07-.95,4.8-4.3,5.74-5,5.83ZM143,67.44c5.64-.7,8.25,4.2,7.78,4.67a1.62,1.62,0,0,1-1.18.35c-1.9.05-4.57-2.12-5.1-2.1-1.05,0-2.63,1.66-3.66,3-.44.57-3.14,1.42-2.84-.06,1-4.82,4.3-5.76,5-5.85Z" style="fill:#4cbf4b"/></svg>