<svg xmlns="http://www.w3.org/2000/svg" width="176" height="104"><g fill-rule="evenodd"><g fill-rule="nonzero"><path d="M42 71.55H4a4 4 0 0 0-4 4v24a4 4 0 0 0 4 4h38a4 4 0 0 0 4-4v-24a4 4 0 0 0-4-4zm2 28a2 2 0 0 1-2 2H4a2 2 0 0 1-2-2v-24a2 2 0 0 1 2-2h38a2 2 0 0 1 2 2v24zm-20.03-18h2v2h-2v-2zm11.8-3H31v8h8v-4.8a3.2 3.2 0 0 0-3.23-3.2zm2.2 7H32v-6h3.8a2.19 2.19 0 0 1 2.19 2.2l-.02 3.8zm-14 6h2v2h-2v-2zM21 81.75v4.8h8v-8h-4.83a3.2 3.2 0 0 0-3.17 3.2zm7 3.8h-6v-3.8a2.2 2.2 0 0 1 2.21-2.2H28v6zm-7 7.8a3.2 3.2 0 0 0 3.2 3.2H29v-8h-8v4.8zm1-3.8h6v6h-3.83a2.21 2.21 0 0 1-2.17-2.2v-3.8zm14.96 0h1v1h1v-2h-2v1zm1.04 3.8a2.2 2.2 0 0 1-2.19 2.2H34v1h1.8a3.21 3.21 0 0 0 3.2-3.2v-.8h-1v.8zm-4.04-11.8h2v2h-2v-2zm0 10h2v2h-2v-2zm-3 2h1v3h-1v-3zm4.5-5h-4.5v3h1v-2h3.5v-1z" fill="#6F6F6F"/><path d="M156.52 84.05l.01.01a.45.45 0 0 1 .45.44v1.78a.44.44 0 0 1-.45.44h-1.7l-.57.57V89a.43.43 0 0 1-.14.31.44.44 0 0 1-.31.13h-1.7l-.57.57v1.6a.46.46 0 0 1-.46.45h-1.8a.46.46 0 0 1-.32-.13.45.45 0 0 1-.14-.32v-1.43l-.9-.74h-1.75l-.58.57v1.6a.45.45 0 0 1-.45.45h-1.8a.45.45 0 0 1-.45-.45v-1.77a.45.45 0 0 1 .45-.45h1.7l.57-.57v-1.36l-.9-.74h-1.75l-.58.57V89a.45.45 0 0 1-.45.44h-1.68l-.58.57v1.6a.44.44 0 0 1-.45.45h-1.8a.45.45 0 0 1-.45-.45v-1.77a.45.45 0 0 1 .45-.45h1.68l.58-.56v-1.66a.45.45 0 0 1 .45-.45h1.7l.57-.56V84.5a.45.45 0 0 1 .45-.44h1.8a.45.45 0 0 1 .45.44v1.48l.9.74h1.76l.57-.56V84.5a.41.41 0 0 1 .14-.31.42.42 0 0 1 .32-.13h1.8a.4.4 0 0 1 .31.13.41.41 0 0 1 .14.31v1.77a.41.41 0 0 1-.14.31.4.4 0 0 1-.31.13h-1.7l-.57.57v1.36l.9.74h1.75l.58-.56v-1.66a.45.45 0 0 1 .45-.45h1.7l.58-.56V84.5a.45.45 0 0 1 .45-.44h1.8zm17.48-.5a2 2 0 0 1 2 2v6a2 2 0 0 1-2 2v6a4 4 0 0 1-4 4h-38a4 4 0 0 1-4-4v-26a5 5 0 0 1 5-5h32a3 3 0 0 1 3 3v2h2a4 4 0 0 1 4 4v6zm-39.5-13a1.5 1.5 0 1 0 0 3H166v-2a1 1 0 0 0-1-1h-30.5zm37.5 29v-6h-8a2 2 0 0 1-2-2v-6a2 2 0 0 1 2-2h8v-6a2 2 0 0 0-2-2h-35.5a3.52 3.52 0 0 1-3.32-4.63 2.5 2.5 0 0 0-1.18 2.13v26.5a2 2 0 0 0 2 2h38a2 2 0 0 0 2-2zm2-8v-6h-10v6h10z" fill="#A3CDFF"/></g><path d="M36.035 19.86l8.066 4.015A2 2 0 0 1 45 26.555l-4.015 8.066a2 2 0 0 1-2.682.899l-8.066-4.015a2 2 0 0 1-.899-2.682l4.015-8.066a2 2 0 0 1 2.682-.899zm50.833-18.37l6.37 6.37a2 2 0 0 1 0 2.828l-6.37 6.37a2 2 0 0 1-2.828 0l-6.37-6.37a2 2 0 0 1 0-2.828l6.37-6.37a2 2 0 0 1 2.828 0zm50.077 15.626l5.57 7.082a2 2 0 0 1-.335 2.808l-7.082 5.57a2 2 0 0 1-2.808-.335l-5.57-7.082a2 2 0 0 1 .335-2.808l7.082-5.57a2 2 0 0 1 2.808.335zM156.16 51.52h.02a.5.5 0 0 1 .4.84l-5.3 6.22a.49.49 0 0 1-.76 0l-5.3-6.22a.5.5 0 0 1 .38-.82h4.07a37.25 37.25 0 0 0-6-16.43 1 1 0 0 1 .752-1.6 1 1 0 0 1 .908.49 39.26 39.26 0 0 1 6.33 17.52h4.5zm-33.8-35.74v.05a1 1 0 0 1-.4 1.91.92.92 0 0 1-.4-.08 84.32 84.32 0 0 0-20.7-5.88c-.357-.057-.657-.3-.786-.64s-.068-.72.16-1 .59-.42.946-.36a85.91 85.91 0 0 1 21.18 6zM70 9.73l-.05-.03c.552-.097 1.078.273 1.175.825s-.273 1.078-.825 1.175a67 67 0 0 0-20.82 7.18 1 1 0 0 1-1.458-.654 1 1 0 0 1 .538-1.126A68.88 68.88 0 0 1 70 9.73zM27.92 39.9v-.01a1 1 0 0 1 .56 1.32A43.66 43.66 0 0 0 25 58.57a1 1 0 1 1-2 0 45.61 45.61 0 0 1 3.61-18.14 1 1 0 0 1 1.31-.53z" fill="#A3CDFF"/></g></svg>